<?xml version="1.0" encoding="UTF-8"?>
<svg width="48px" height="48px" viewBox="0 0 48 48" version="1.1" xmlns="http://www.w3.org/2000/svg" xmlns:xlink="http://www.w3.org/1999/xlink">
    <!-- Generator: Sketch 44.1 (41455) - http://www.bohemiancoding.com/sketch -->
    <title>Group 41</title>
    <desc>Created with Sketch.</desc>
    <defs></defs>
    <g id="Page-1" stroke="none" stroke-width="1" fill="none" fill-rule="evenodd">
        <g id="Group-41">
            <g id="Group-33">
                <rect id="Rectangle-17-Copy-3" x="0" y="0" width="48" height="48"></rect>
                <g id="Group-31" transform="translate(8.000000, 8.000000)" fill="#000000">
                    <path d="M15.9930667,16.6521956 C11.5968711,16.6521956 8,12.9220978 8,8.32608 C8,3.73006222 11.5968711,0 15.9930667,0 C20.3892622,0 23.9861333,3.73009778 23.9861333,8.32608 C23.9861333,12.9220622 20.3892622,16.6521956 15.9930667,16.6521956 Z" id="Path-Copy-2"></path>
                    <path d="M23.3131022,31.5873422 C21.3814756,31.5873422 18.1176178,31.5873422 15.9861333,31.5873422 C13.8546489,31.5873422 10.7240178,31.5873422 8.65916444,31.5873422 C2.79758222,31.5873422 0,30.6548267 0,27.92384 C0,22.1954844 7.12714667,17 15.9861333,17 C24.84512,17 31.9722667,22.1954844 31.9722667,27.92384 C31.9722667,30.6547556 29.1746844,31.5873422 23.3131022,31.5873422 Z" id="Shape-Copy" fill-rule="nonzero"></path>
                </g>
            </g>
        </g>
    </g>
</svg>