<?xml version="1.0" encoding="UTF-8"?>
<svg width="48px" height="48px" viewBox="0 0 48 48" version="1.1" xmlns="http://www.w3.org/2000/svg" xmlns:xlink="http://www.w3.org/1999/xlink">
    <!-- Generator: Sketch 44.1 (41455) - http://www.bohemiancoding.com/sketch -->
    <title>Group 4</title>
    <desc>Created with Sketch.</desc>
    <defs></defs>
    <g id="Page-1" stroke="none" stroke-width="1" fill="none" fill-rule="evenodd">
        <g id="Group-4-Copy-2">
            <rect id="Rectangle-6" x="0" y="0" width="48" height="48"></rect>
            <path d="M14,8 L34,8 C36.7614237,8 39,10.2385763 39,13 L39,30.7214363 L39,30.7214363 C39,31.5760954 38.6354751,32.3901823 37.9979204,32.9593626 L30.9651264,39.2379263 C30.4153641,39.7287295 29.7041771,40 28.967206,40 L14,40 C11.2385763,40 9,37.7614237 9,35 L9,13 L9,13 C9,10.2385763 11.2385763,8 14,8 L14,8 Z M14.5,14 C13.6715729,14 13,14.6715729 13,15.5 C13,16.3284271 13.6715729,17 14.5,17 L33.5,17 C34.3284271,17 35,16.3284271 35,15.5 C35,14.6715729 34.3284271,14 33.5,14 L14.5,14 Z M14.5,21 C13.6715729,21 13,21.6715729 13,22.5 C13,23.3284271 13.6715729,24 14.5,24 L33.5,24 C34.3284271,24 35,23.3284271 35,22.5 C35,21.6715729 34.3284271,21 33.5,21 L14.5,21 Z" id="Combined-Shape" fill="#000000"></path>
        </g>
    </g>
</svg>