<?xml version="1.0" encoding="UTF-8"?>
<svg width="48px" height="48px" viewBox="0 0 48 48" version="1.1" xmlns="http://www.w3.org/2000/svg" xmlns:xlink="http://www.w3.org/1999/xlink">
    <!-- Generator: Sketch 44.1 (41455) - http://www.bohemiancoding.com/sketch -->
    <title>Group 2</title>
    <desc>Created with Sketch.</desc>
    <defs></defs>
    <g id="Page-1" stroke="none" stroke-width="1" fill="none" fill-rule="evenodd">
        <g id="订单页面1440" transform="translate(-26.000000, -227.000000)">
            <g id="Group-11" transform="translate(26.000000, 227.000000)">
                <g id="Group-7-Copy">
                    <g id="Group-2">
                        <rect id="Rectangle-17" x="0" y="0" width="48" height="48"></rect>
                        <path d="M24.5,15.7409483 L27.4656762,17.6156306 C27.6255663,17.7167014 27.8108436,17.7703507 28,17.7703507 C28.5522847,17.7703507 29,17.3226355 29,16.7703507 L29,12.8151665 C29,12.6260101 28.9463507,12.4407329 28.8452799,12.2808427 C28.550181,11.8140075 27.9325114,11.6747877 27.4656762,11.9698866 L24.5,13.844569 L21.5343238,11.9698866 C21.0674886,11.6747877 20.449819,11.8140075 20.1547201,12.2808427 C20.0536493,12.4407329 20,12.6260101 20,12.8151665 L20,16.7703507 C20,17.3226355 20.4477153,17.7703507 21,17.7703507 C21.1891564,17.7703507 21.3744337,17.7167014 21.5343238,17.6156306 L24.5,15.7409483 Z M31,31.0412262 L31,24.9997817 C31,23.8952122 30.1045695,22.9997817 29,22.9997817 L19,22.9997817 C17.8954305,22.9997817 17,23.8952122 17,24.9997817 L17,31.0412262 L14,31.0412262 L14,31.0412262 C11.790861,31.0412262 10,29.2503652 10,27.0412262 L10,27.0412262 L10,13 L10,13 C10,10.790861 11.790861,9 14,9 L33.6044276,9 L33.6044276,9 C35.8135666,9 37.6044276,10.790861 37.6044276,13 L37.6044276,27.0412262 L37.6044276,27.0412262 C37.6044276,29.2503652 35.8135666,31.0412262 33.6044276,31.0412262 L33.0023628,31.0412262 L31,31.0412262 Z M20,23.9997817 L28,23.9997817 C29.1045695,23.9997817 30,24.8952122 30,25.9997817 L30,37.9997817 C30,39.1043512 29.1045695,39.9997817 28,39.9997817 L20,39.9997817 C18.8954305,39.9997817 18,39.1043512 18,37.9997817 L18,25.9997817 C18,24.8952122 18.8954305,23.9997817 20,23.9997817 Z" id="Combined-Shape" fill="#000000"></path>
                    </g>
                </g>
            </g>
        </g>
    </g>
</svg>