<?xml version="1.0" encoding="UTF-8"?>
<svg width="48px" height="48px" viewBox="0 0 48 48" version="1.1" xmlns="http://www.w3.org/2000/svg" xmlns:xlink="http://www.w3.org/1999/xlink">
    <!-- Generator: Sketch 44.1 (41455) - http://www.bohemiancoding.com/sketch -->
    <title>Group 42</title>
    <desc>Created with Sketch.</desc>
    <defs></defs>
    <g id="Page-1" stroke="none" stroke-width="1" fill="none" fill-rule="evenodd">
        <g id="Group-42">
            <g id="Group-32">
                <rect id="Rectangle-17-Copy-4" x="0" y="0" width="48" height="48"></rect>
                <path d="M28.766896,39.1743123 C28.7668584,39.1743123 28.7668584,39.1743123 28.7667831,39.1743123 C28.1854887,39.1742746 27.6205672,38.9338753 27.2556209,38.5312902 C26.7584117,37.9862044 25.183113,36.5687253 23.8936813,36.5687253 C22.6131701,36.5687253 21.013519,37.994372 20.5540992,38.4938019 C20.1900186,38.8895744 19.6290116,39.1258335 19.0533254,39.1258335 C18.779164,39.1258335 18.5203969,39.0732143 18.2842131,38.9694064 L18.2428857,38.9512644 L14.3234771,36.7595919 L14.2845585,36.732379 C13.5710012,36.2328739 13.2994746,35.2559576 13.6529786,34.4599335 C13.655651,34.4537608 14.0144622,33.6259319 14.0144622,32.8710848 C14.0144622,30.5802339 12.1506993,28.7164334 9.85984842,28.7164334 L9.72096107,28.7164334 C9.71252995,28.7166216 9.70409887,28.7167345 9.69570542,28.7167345 C9.03947207,28.7167345 8.50518863,28.1338216 8.33449644,27.2316937 C8.32083354,27.1595024 8,25.4482145 8,24.0999533 C8,22.7517298 8.32075825,21.0404042 8.33442119,20.9682129 C8.50725878,20.0545675 9.05321026,19.467665 9.72092344,19.4834356 L9.85984842,19.4834356 C12.150737,19.4834356 14.0144622,17.6196728 14.0144622,15.3287842 C14.0144622,14.5740877 13.6558392,13.746447 13.6521882,13.7381665 C13.2990982,12.9428952 13.5723939,11.9660918 14.288887,11.4681675 L14.3294993,11.4399384 L18.4659335,9.16798216 L18.5089547,9.14965205 C18.7418639,9.05036075 18.99698,9 19.267227,9 C19.8415206,9 20.403732,9.23114016 20.7711625,9.618331 C21.260731,10.1309721 22.8082146,11.4641025 24.0606849,11.4641025 C25.301412,11.4641025 26.8394106,10.1572817 27.327323,9.65371152 C27.6926457,9.27434957 28.2508298,9.04723674 28.8195528,9.04723674 C29.0952574,9.04723674 29.355116,9.09940417 29.5917891,9.20227115 L29.6336811,9.22048835 L33.6287061,11.4400513 L33.6681893,11.4676029 C34.3829134,11.9664682 34.6551552,12.9433845 34.30135,13.7400107 C34.2987153,13.7461082 33.9399041,14.5739747 33.9399041,15.3287842 C33.9399041,17.6196727 35.803667,19.4834356 38.0945179,19.4834356 L38.2334052,19.4834356 C38.9002527,19.4686059 39.4470323,20.0544922 39.6199075,20.9681376 C39.6335328,21.0403666 39.9543663,22.7516544 39.9543663,24.0999157 C39.9543663,25.4481768 39.6335328,27.1594648 39.6198699,27.2316561 C39.446957,28.1453391 38.9003656,28.7300586 38.2333676,28.7163957 L38.0945179,28.7163957 C35.803667,28.7163957 33.9399041,30.5801962 33.9399041,32.8710471 C33.9399041,33.6257437 34.2984895,34.4533467 34.3021404,34.4616273 C34.6550423,35.2563715 34.3823865,36.2332502 33.6669472,36.7317391 L33.6269372,36.7596295 L29.5644633,39.004975 L29.5220443,39.0232675 C29.2896243,39.1235375 29.0354868,39.1743123 28.766896,39.1743123 Z M23.9071937,29.6119746 C26.9580482,29.6119746 29.4401044,27.1298807 29.4401044,24.0790638 C29.4401044,21.0282093 26.9580482,18.5461531 23.9071937,18.5461531 C20.8563392,18.5461531 18.3742829,21.0282093 18.3742829,24.0790638 C18.3742829,27.1299183 20.8563392,29.6119746 23.9071937,29.6119746 Z" id="Combined-Shape-Copy" fill="#000000" fill-rule="nonzero"></path>
            </g>
        </g>
    </g>
</svg>