<?xml version="1.0" encoding="UTF-8"?>
<svg width="48px" height="48px" viewBox="0 0 48 48" version="1.1" xmlns="http://www.w3.org/2000/svg" xmlns:xlink="http://www.w3.org/1999/xlink">
    <!-- Generator: Sketch 44.1 (41455) - http://www.bohemiancoding.com/sketch -->
    <title>Group 38</title>
    <desc>Created with Sketch.</desc>
    <defs></defs>
    <g id="Page-1" stroke="none" stroke-width="1" fill="none" fill-rule="evenodd">
        <g id="Group-38">
            <g id="Group-35">
                <path d="M21.2011277,34.5728185 L16.818222,30.1899127 C16.4276977,29.7993885 15.7945328,29.7993885 15.4040085,30.1899127 C15.0134842,30.580437 15.0134842,31.213602 15.4040085,31.6041263 L20.3537559,36.5538738 C20.4620208,36.6621387 20.5889341,36.7403893 20.7241561,36.7886257 C21.1097997,37.0275679 21.6226701,36.9797032 21.9573417,36.6450317 L31.8568366,26.7455367 C32.2473609,26.3550124 32.2473609,25.7218475 31.8568366,25.3313232 C31.4663123,24.9407989 30.8331473,24.9407989 30.442623,25.3313232 L21.2011277,34.5728185 Z M10.3228311,24.7573593 L8,24.7573593 C7.44771525,24.7573593 7,24.3096441 7,23.7573593 C7,23.4921634 7.10534055,23.2378275 7.29285127,23.0502945 L21.4626589,8.87880553 L21.4626588,8.87880551 C22.6341622,7.70716313 24.5336571,7.70705044 25.7052995,8.87855381 L39.8786377,23.0502106 C40.2691852,23.4407117 40.2692227,24.0738767 39.8787216,24.4644242 C39.6911818,24.6519862 39.4368099,24.7573593 39.1715729,24.7573593 L36.8491469,24.7573593 L36.8491469,36.9152541 C36.8491469,38.5721083 35.5060011,39.9152541 33.8491469,39.9152541 L13.3228311,39.9152541 C11.6659768,39.9152541 10.3228311,38.5721083 10.3228311,36.9152541 L10.3228311,24.7573593 Z" id="Rectangle-10-Copy" fill="#000000"></path>
                <rect id="Rectangle-17-Copy" x="0" y="0" width="48" height="48"></rect>
            </g>
        </g>
    </g>
</svg>