<?xml version="1.0" encoding="UTF-8"?>
<svg width="48px" height="48px" viewBox="0 0 48 48" version="1.1" xmlns="http://www.w3.org/2000/svg" xmlns:xlink="http://www.w3.org/1999/xlink">
    <!-- Generator: Sketch 44.1 (41455) - http://www.bohemiancoding.com/sketch -->
    <title>Group 39</title>
    <desc>Created with Sketch.</desc>
    <defs></defs>
    <g id="Page-1" stroke="none" stroke-width="1" fill="none" fill-rule="evenodd">
        <g id="Group-39">
            <g id="Group-34">
                <rect id="Rectangle-17-Copy-2" x="0" y="0" width="48" height="48"></rect>
                <path d="M9,12 L39,12 C40.6568542,12 42,13.3431458 42,15 L42,33.6315789 C42,35.2884332 40.6568542,36.6315789 39,36.6315789 L9,36.6315789 L9,36.6315789 C7.34314575,36.6315789 6,35.2884332 6,33.6315789 L6,15 L6,15 C6,13.3431458 7.34314575,12 9,12 Z M10.1210526,15.7894737 C9.33622693,15.7894737 8.7,16.4257006 8.7,17.2105263 C8.7,17.995352 9.33622693,18.6315789 10.1210526,18.6315789 L18.0789474,18.6315789 C18.8637731,18.6315789 19.5,17.995352 19.5,17.2105263 L19.5,17.2105263 C19.5,16.4257006 18.8637731,15.7894737 18.0789474,15.7894737 L10.1210526,15.7894737 Z M10.1210526,21.4736842 C9.33622693,21.4736842 8.7,22.1099111 8.7,22.8947368 C8.7,23.6795625 9.33622693,24.3157895 10.1210526,24.3157895 L36.9789474,24.3157895 C37.7637731,24.3157895 38.4,23.6795625 38.4,22.8947368 C38.4,22.1099111 37.7637731,21.4736842 36.9789474,21.4736842 L10.1210526,21.4736842 Z" id="Combined-Shape-Copy-3" fill="#000000"></path>
            </g>
        </g>
    </g>
</svg>